<mxfile host="app.diagrams.net" modified="2023-11-22T08:18:13.900Z" agent="Mozilla/5.0 (Windows NT 10.0; Win64; x64) AppleWebKit/537.36 (KHTML, like Gecko) Chrome/119.0.0.0 Safari/537.36" etag="Z_hP-jurXZFTG7n7lcM7" version="22.1.3" type="google">
  <diagram name="Page-1" id="c5G7CeHf_UwGjJhBK27U">
    <mxGraphModel grid="1" page="1" gridSize="10" guides="1" tooltips="1" connect="1" arrows="1" fold="1" pageScale="1" pageWidth="827" pageHeight="1169" math="0" shadow="0">
      <root>
        <mxCell id="0" />
        <mxCell id="1" parent="0" />
        <mxCell id="NaAtIMm-xTfxLxhDLTir-5" value="Dock Pane" style="shape=module;align=left;spacingLeft=20;align=center;verticalAlign=top;whiteSpace=wrap;html=1;" vertex="1" parent="1">
          <mxGeometry x="-450" y="40" width="300" height="960" as="geometry" />
        </mxCell>
        <mxCell id="NaAtIMm-xTfxLxhDLTir-6" value="WPF" style="shape=module;align=left;spacingLeft=20;align=center;verticalAlign=top;whiteSpace=wrap;html=1;" vertex="1" parent="1">
          <mxGeometry x="-430" y="70" width="265" height="920" as="geometry" />
        </mxCell>
        <mxCell id="NaAtIMm-xTfxLxhDLTir-7" value="WebView2" style="shape=module;align=left;spacingLeft=20;align=center;verticalAlign=top;whiteSpace=wrap;html=1;" vertex="1" parent="1">
          <mxGeometry x="-420" y="110" width="250" height="870" as="geometry" />
        </mxCell>
        <mxCell id="NaAtIMm-xTfxLxhDLTir-8" value="Login" style="html=1;dropTarget=0;whiteSpace=wrap;" vertex="1" parent="1">
          <mxGeometry x="-386.25" y="143" width="196.25" height="67" as="geometry" />
        </mxCell>
        <mxCell id="NaAtIMm-xTfxLxhDLTir-9" value="" style="shape=module;jettyWidth=8;jettyHeight=4;" vertex="1" parent="NaAtIMm-xTfxLxhDLTir-8">
          <mxGeometry x="1" width="20" height="20" relative="1" as="geometry">
            <mxPoint x="-27" y="7" as="offset" />
          </mxGeometry>
        </mxCell>
        <mxCell id="NaAtIMm-xTfxLxhDLTir-12" value="Download" style="html=1;dropTarget=0;whiteSpace=wrap;" vertex="1" parent="1">
          <mxGeometry x="-400" y="220" width="220" height="740" as="geometry" />
        </mxCell>
        <mxCell id="NaAtIMm-xTfxLxhDLTir-13" value="" style="shape=module;jettyWidth=8;jettyHeight=4;" vertex="1" parent="NaAtIMm-xTfxLxhDLTir-12">
          <mxGeometry x="1" width="20" height="20" relative="1" as="geometry">
            <mxPoint x="-27" y="7" as="offset" />
          </mxGeometry>
        </mxCell>
        <mxCell id="NaAtIMm-xTfxLxhDLTir-14" value="Issue Manager" style="html=1;dropTarget=0;whiteSpace=wrap;" vertex="1" parent="1">
          <mxGeometry x="-386.25" y="450" width="196.25" height="193.05" as="geometry" />
        </mxCell>
        <mxCell id="NaAtIMm-xTfxLxhDLTir-15" value="" style="shape=module;jettyWidth=8;jettyHeight=4;" vertex="1" parent="NaAtIMm-xTfxLxhDLTir-14">
          <mxGeometry x="1" width="20" height="20" relative="1" as="geometry">
            <mxPoint x="-27" y="7" as="offset" />
          </mxGeometry>
        </mxCell>
        <mxCell id="NaAtIMm-xTfxLxhDLTir-16" value="doLogin()" style="rounded=0;whiteSpace=wrap;html=1;" vertex="1" parent="1">
          <mxGeometry x="90" y="151" width="120" height="30" as="geometry" />
        </mxCell>
        <mxCell id="NaAtIMm-xTfxLxhDLTir-17" value="OnLoginSuccess()" style="rounded=0;whiteSpace=wrap;html=1;" vertex="1" parent="1">
          <mxGeometry x="-53.5" y="230" width="120" height="30" as="geometry" />
        </mxCell>
        <mxCell id="NaAtIMm-xTfxLxhDLTir-21" value="ExportClashesToIssues()" style="rounded=0;whiteSpace=wrap;html=1;" vertex="1" parent="1">
          <mxGeometry x="66.5" y="690.37" width="140" height="30" as="geometry" />
        </mxCell>
        <mxCell id="NaAtIMm-xTfxLxhDLTir-26" value="getDownloadStatus()" style="rounded=0;whiteSpace=wrap;html=1;" vertex="1" parent="1">
          <mxGeometry x="85.5" y="305" width="121" height="30" as="geometry" />
        </mxCell>
        <mxCell id="NaAtIMm-xTfxLxhDLTir-27" value="DownloadFileCompleted()" style="rounded=0;whiteSpace=wrap;html=1;" vertex="1" parent="1">
          <mxGeometry x="731" y="306.25" width="150" height="30" as="geometry" />
        </mxCell>
        <mxCell id="NaAtIMm-xTfxLxhDLTir-28" value="openFiles()" style="rounded=0;whiteSpace=wrap;html=1;" vertex="1" parent="1">
          <mxGeometry x="336" y="370" width="150" height="30" as="geometry" />
        </mxCell>
        <mxCell id="NaAtIMm-xTfxLxhDLTir-29" value="closeFiles()" style="rounded=0;whiteSpace=wrap;html=1;" vertex="1" parent="1">
          <mxGeometry x="336" y="440" width="150" height="30" as="geometry" />
        </mxCell>
        <mxCell id="NaAtIMm-xTfxLxhDLTir-30" value="stopDownload()" style="rounded=0;whiteSpace=wrap;html=1;" vertex="1" parent="1">
          <mxGeometry x="731" y="260" width="150" height="30" as="geometry" />
        </mxCell>
        <mxCell id="NaAtIMm-xTfxLxhDLTir-31" value="CaptureView()" style="rounded=0;whiteSpace=wrap;html=1;" vertex="1" parent="1">
          <mxGeometry x="400" y="504" width="120" height="30" as="geometry" />
        </mxCell>
        <mxCell id="NaAtIMm-xTfxLxhDLTir-32" value="RenderView()" style="rounded=0;whiteSpace=wrap;html=1;" vertex="1" parent="1">
          <mxGeometry x="200" y="634.37" width="120" height="30" as="geometry" />
        </mxCell>
        <mxCell id="NaAtIMm-xTfxLxhDLTir-37" value="logout()" style="rounded=0;whiteSpace=wrap;html=1;" vertex="1" parent="1">
          <mxGeometry x="100" y="943.5" width="120" height="30" as="geometry" />
        </mxCell>
        <mxCell id="NaAtIMm-xTfxLxhDLTir-39" value="Asite CDE" style="ellipse;shape=cloud;whiteSpace=wrap;html=1;" vertex="1" parent="1">
          <mxGeometry x="1052" y="319" width="240" height="270" as="geometry" />
        </mxCell>
        <mxCell id="NaAtIMm-xTfxLxhDLTir-51" value="Create Issue" style="rounded=1;fillColor=#0057D8;align=center;strokeColor=none;html=1;whiteSpace=wrap;fontColor=#ffffff;fontSize=12;sketch=0;arcSize=50;" vertex="1" parent="1">
          <mxGeometry x="35" y="507.5" width="110" height="26.5" as="geometry" />
        </mxCell>
        <mxCell id="NaAtIMm-xTfxLxhDLTir-53" value="Edit Issue" style="rounded=1;fillColor=#0057D8;align=center;strokeColor=none;html=1;whiteSpace=wrap;fontColor=#ffffff;fontSize=12;sketch=0;arcSize=50;" vertex="1" parent="1">
          <mxGeometry x="447.5" y="635.87" width="110" height="26.5" as="geometry" />
        </mxCell>
        <mxCell id="NaAtIMm-xTfxLxhDLTir-54" value="Create Comment" style="rounded=1;fillColor=#0057D8;align=center;strokeColor=none;html=1;whiteSpace=wrap;fontColor=#ffffff;fontSize=12;sketch=0;arcSize=50;" vertex="1" parent="1">
          <mxGeometry x="228" y="589" width="110" height="26.5" as="geometry" />
        </mxCell>
        <mxCell id="NaAtIMm-xTfxLxhDLTir-55" value="View Issue" style="rounded=1;fillColor=#0057D8;align=center;strokeColor=none;html=1;whiteSpace=wrap;fontColor=#ffffff;fontSize=12;sketch=0;arcSize=50;" vertex="1" parent="1">
          <mxGeometry x="35" y="589.88" width="110" height="26.5" as="geometry" />
        </mxCell>
        <mxCell id="NaAtIMm-xTfxLxhDLTir-56" value="Logout" style="rounded=1;fillColor=#0057D8;align=center;strokeColor=none;html=1;whiteSpace=wrap;fontColor=#ffffff;fontSize=12;sketch=0;arcSize=50;" vertex="1" parent="1">
          <mxGeometry x="-90" y="947" width="110" height="26.5" as="geometry" />
        </mxCell>
        <mxCell id="NaAtIMm-xTfxLxhDLTir-78" value="" style="edgeStyle=orthogonalEdgeStyle;rounded=0;orthogonalLoop=1;jettySize=auto;html=1;" edge="1" parent="1" source="NaAtIMm-xTfxLxhDLTir-57" target="NaAtIMm-xTfxLxhDLTir-66">
          <mxGeometry relative="1" as="geometry" />
        </mxCell>
        <mxCell id="NaAtIMm-xTfxLxhDLTir-57" value="" style="shape=image;html=1;verticalAlign=top;verticalLabelPosition=bottom;labelBackgroundColor=#ffffff;imageAspect=0;aspect=fixed;image=https://cdn3.iconfinder.com/data/icons/arrows-set-12/512/reset-128.png" vertex="1" parent="1">
          <mxGeometry x="284.75" y="305" width="32.5" height="32.5" as="geometry" />
        </mxCell>
        <mxCell id="NaAtIMm-xTfxLxhDLTir-62" value="Login" style="rounded=1;fillColor=#0057D8;align=center;strokeColor=none;html=1;whiteSpace=wrap;fontColor=#ffffff;fontSize=12;sketch=0;arcSize=50;" vertex="1" parent="1">
          <mxGeometry x="-110" y="151.5" width="110" height="26.5" as="geometry" />
        </mxCell>
        <mxCell id="NaAtIMm-xTfxLxhDLTir-66" value="Condition" style="rhombus;whiteSpace=wrap;html=1;fontColor=#000000;fillColor=#ffffc0;strokeColor=#ff0000;" vertex="1" parent="1">
          <mxGeometry x="371" y="298.75" width="80" height="45" as="geometry" />
        </mxCell>
        <mxCell id="NaAtIMm-xTfxLxhDLTir-68" value="True" style="edgeStyle=orthogonalEdgeStyle;html=1;align=left;verticalAlign=top;endArrow=open;endSize=8;strokeColor=#ff0000;rounded=0;" edge="1" parent="1">
          <mxGeometry x="-1" y="16" relative="1" as="geometry">
            <mxPoint x="411" y="372" as="targetPoint" />
            <mxPoint x="411" y="347" as="sourcePoint" />
            <mxPoint as="offset" />
          </mxGeometry>
        </mxCell>
        <mxCell id="NaAtIMm-xTfxLxhDLTir-75" value="" style="endArrow=classic;html=1;rounded=0;exitX=1;exitY=0.5;exitDx=0;exitDy=0;entryX=0;entryY=0.5;entryDx=0;entryDy=0;" edge="1" parent="1" source="NaAtIMm-xTfxLxhDLTir-80" target="NaAtIMm-xTfxLxhDLTir-27">
          <mxGeometry width="50" height="50" relative="1" as="geometry">
            <mxPoint x="650" y="305.5" as="sourcePoint" />
            <mxPoint x="681" y="306" as="targetPoint" />
          </mxGeometry>
        </mxCell>
        <mxCell id="NaAtIMm-xTfxLxhDLTir-76" value="False" style="edgeStyle=orthogonalEdgeStyle;html=1;align=left;verticalAlign=top;endArrow=open;endSize=8;strokeColor=#ff0000;rounded=0;exitX=1;exitY=0.5;exitDx=0;exitDy=0;entryX=0;entryY=0.5;entryDx=0;entryDy=0;" edge="1" parent="1">
          <mxGeometry x="-0.8062" y="6" relative="1" as="geometry">
            <mxPoint x="571" y="322.75" as="targetPoint" />
            <mxPoint x="451" y="321" as="sourcePoint" />
            <Array as="points">
              <mxPoint x="451" y="322.5" />
            </Array>
            <mxPoint as="offset" />
          </mxGeometry>
        </mxCell>
        <mxCell id="NaAtIMm-xTfxLxhDLTir-79" value="" style="endArrow=classic;html=1;rounded=0;entryX=1;entryY=0.5;entryDx=0;entryDy=0;exitX=0.5;exitY=1;exitDx=0;exitDy=0;" edge="1" parent="1" source="NaAtIMm-xTfxLxhDLTir-27" target="NaAtIMm-xTfxLxhDLTir-28">
          <mxGeometry width="50" height="50" relative="1" as="geometry">
            <mxPoint x="811" y="371" as="sourcePoint" />
            <mxPoint x="441" y="261" as="targetPoint" />
            <Array as="points">
              <mxPoint x="806" y="385" />
            </Array>
          </mxGeometry>
        </mxCell>
        <mxCell id="NaAtIMm-xTfxLxhDLTir-80" value="startDownload()" style="rounded=0;whiteSpace=wrap;html=1;" vertex="1" parent="1">
          <mxGeometry x="580" y="306.25" width="90" height="30" as="geometry" />
        </mxCell>
        <mxCell id="NaAtIMm-xTfxLxhDLTir-86" value="" style="endArrow=classic;html=1;rounded=0;exitX=1;exitY=0.5;exitDx=0;exitDy=0;entryX=0;entryY=0.5;entryDx=0;entryDy=0;" edge="1" parent="1" source="NaAtIMm-xTfxLxhDLTir-26" target="NaAtIMm-xTfxLxhDLTir-57">
          <mxGeometry width="50" height="50" relative="1" as="geometry">
            <mxPoint x="331" y="390" as="sourcePoint" />
            <mxPoint x="381" y="340" as="targetPoint" />
          </mxGeometry>
        </mxCell>
        <mxCell id="NaAtIMm-xTfxLxhDLTir-87" value="" style="endArrow=classic;html=1;rounded=0;exitX=1;exitY=0.5;exitDx=0;exitDy=0;" edge="1" parent="1">
          <mxGeometry width="50" height="50" relative="1" as="geometry">
            <mxPoint x="-190" y="319.5" as="sourcePoint" />
            <mxPoint x="-120" y="320" as="targetPoint" />
          </mxGeometry>
        </mxCell>
        <mxCell id="NaAtIMm-xTfxLxhDLTir-88" value="" style="endArrow=classic;html=1;rounded=0;exitX=0.5;exitY=1;exitDx=0;exitDy=0;entryX=0.5;entryY=0;entryDx=0;entryDy=0;" edge="1" parent="1" source="NaAtIMm-xTfxLxhDLTir-28" target="NaAtIMm-xTfxLxhDLTir-29">
          <mxGeometry width="50" height="50" relative="1" as="geometry">
            <mxPoint x="491" y="460" as="sourcePoint" />
            <mxPoint x="541" y="410" as="targetPoint" />
          </mxGeometry>
        </mxCell>
        <mxCell id="NaAtIMm-xTfxLxhDLTir-89" value="" style="endArrow=classic;html=1;rounded=0;entryX=0;entryY=0.5;entryDx=0;entryDy=0;exitX=0.4;exitY=0.058;exitDx=0;exitDy=0;exitPerimeter=0;" edge="1" parent="1" source="NaAtIMm-xTfxLxhDLTir-80" target="NaAtIMm-xTfxLxhDLTir-30">
          <mxGeometry width="50" height="50" relative="1" as="geometry">
            <mxPoint x="621" y="270" as="sourcePoint" />
            <mxPoint x="541" y="410" as="targetPoint" />
            <Array as="points">
              <mxPoint x="616" y="275" />
            </Array>
          </mxGeometry>
        </mxCell>
        <mxCell id="NaAtIMm-xTfxLxhDLTir-90" value="Go to issues" style="rounded=1;fillColor=#0057D8;align=center;strokeColor=none;html=1;whiteSpace=wrap;fontColor=#ffffff;fontSize=12;sketch=0;arcSize=50;" vertex="1" parent="1">
          <mxGeometry x="-120" y="551.87" width="110" height="26.5" as="geometry" />
        </mxCell>
        <mxCell id="NaAtIMm-xTfxLxhDLTir-91" value="" style="endArrow=classic;html=1;rounded=0;" edge="1" parent="1">
          <mxGeometry width="50" height="50" relative="1" as="geometry">
            <mxPoint x="-187.5" y="708.37" as="sourcePoint" />
            <mxPoint x="-97.5" y="707.37" as="targetPoint" />
          </mxGeometry>
        </mxCell>
        <mxCell id="NaAtIMm-xTfxLxhDLTir-99" value="" style="endArrow=classic;html=1;rounded=0;exitX=1;exitY=0.5;exitDx=0;exitDy=0;" edge="1" parent="1">
          <mxGeometry width="50" height="50" relative="1" as="geometry">
            <mxPoint x="12" y="704.87" as="sourcePoint" />
            <mxPoint x="66.5" y="705.37" as="targetPoint" />
          </mxGeometry>
        </mxCell>
        <mxCell id="NaAtIMm-xTfxLxhDLTir-105" value="" style="endArrow=classic;html=1;rounded=0;entryX=0;entryY=0.5;entryDx=0;entryDy=0;exitX=1;exitY=0.5;exitDx=0;exitDy=0;" edge="1" parent="1" target="NaAtIMm-xTfxLxhDLTir-62">
          <mxGeometry width="50" height="50" relative="1" as="geometry">
            <mxPoint x="-190" y="164" as="sourcePoint" />
            <mxPoint x="-30" y="296" as="targetPoint" />
          </mxGeometry>
        </mxCell>
        <mxCell id="w1W0A1VWwd_R5ZJ30TFv-2" value="Export" style="rounded=1;fillColor=#0057D8;align=center;strokeColor=none;html=1;whiteSpace=wrap;fontColor=#ffffff;fontSize=12;sketch=0;arcSize=50;" vertex="1" parent="1">
          <mxGeometry x="-97.5" y="692.87" width="110" height="26.5" as="geometry" />
        </mxCell>
        <mxCell id="w1W0A1VWwd_R5ZJ30TFv-4" value="CoreWebView2InitializationCompleted()" style="rounded=0;whiteSpace=wrap;html=1;" vertex="1" parent="1">
          <mxGeometry x="-60" y="113" width="240" height="30" as="geometry" />
        </mxCell>
        <mxCell id="w1W0A1VWwd_R5ZJ30TFv-5" value="" style="endArrow=classic;html=1;rounded=0;exitX=0.994;exitY=0.022;exitDx=0;exitDy=0;exitPerimeter=0;entryX=0;entryY=0.5;entryDx=0;entryDy=0;" edge="1" parent="1" source="NaAtIMm-xTfxLxhDLTir-7" target="w1W0A1VWwd_R5ZJ30TFv-4">
          <mxGeometry width="50" height="50" relative="1" as="geometry">
            <mxPoint x="100" y="380" as="sourcePoint" />
            <mxPoint x="150" y="330" as="targetPoint" />
          </mxGeometry>
        </mxCell>
        <mxCell id="w1W0A1VWwd_R5ZJ30TFv-6" value="" style="endArrow=classic;html=1;rounded=0;exitX=1;exitY=0.5;exitDx=0;exitDy=0;entryX=0;entryY=0.5;entryDx=0;entryDy=0;" edge="1" parent="1" source="NaAtIMm-xTfxLxhDLTir-62" target="NaAtIMm-xTfxLxhDLTir-16">
          <mxGeometry width="50" height="50" relative="1" as="geometry">
            <mxPoint x="100" y="346" as="sourcePoint" />
            <mxPoint x="150" y="296" as="targetPoint" />
          </mxGeometry>
        </mxCell>
        <mxCell id="w1W0A1VWwd_R5ZJ30TFv-11" value="Submit" style="rounded=1;fillColor=#0057D8;align=center;strokeColor=none;html=1;whiteSpace=wrap;fontColor=#ffffff;fontSize=12;sketch=0;arcSize=50;" vertex="1" parent="1">
          <mxGeometry x="220" y="507.5" width="110" height="26.5" as="geometry" />
        </mxCell>
        <mxCell id="w1W0A1VWwd_R5ZJ30TFv-12" value="setCurrentDcData()" style="rounded=0;whiteSpace=wrap;html=1;" vertex="1" parent="1">
          <mxGeometry x="-120" y="305" width="120" height="30" as="geometry" />
        </mxCell>
        <mxCell id="w1W0A1VWwd_R5ZJ30TFv-17" value="" style="endArrow=classic;html=1;rounded=0;entryX=0;entryY=0.5;entryDx=0;entryDy=0;" edge="1" parent="1" target="NaAtIMm-xTfxLxhDLTir-26">
          <mxGeometry width="50" height="50" relative="1" as="geometry">
            <mxPoint x="5.5" y="320" as="sourcePoint" />
            <mxPoint x="275.5" y="440" as="targetPoint" />
          </mxGeometry>
        </mxCell>
        <mxCell id="w1W0A1VWwd_R5ZJ30TFv-20" value="" style="endArrow=classic;html=1;rounded=0;" edge="1" parent="1">
          <mxGeometry width="50" height="50" relative="1" as="geometry">
            <mxPoint x="138.75" y="602.64" as="sourcePoint" />
            <mxPoint x="228" y="602.63" as="targetPoint" />
          </mxGeometry>
        </mxCell>
        <mxCell id="w1W0A1VWwd_R5ZJ30TFv-21" value="" style="endArrow=classic;html=1;rounded=0;exitX=0.5;exitY=1;exitDx=0;exitDy=0;" edge="1" parent="1" source="NaAtIMm-xTfxLxhDLTir-90">
          <mxGeometry width="50" height="50" relative="1" as="geometry">
            <mxPoint x="100" y="537.5" as="sourcePoint" />
            <mxPoint x="30" y="607.5" as="targetPoint" />
            <Array as="points">
              <mxPoint x="-65" y="607.5" />
            </Array>
          </mxGeometry>
        </mxCell>
        <mxCell id="w1W0A1VWwd_R5ZJ30TFv-22" value="" style="endArrow=classic;html=1;rounded=0;exitX=0.5;exitY=0;exitDx=0;exitDy=0;entryX=0;entryY=0.5;entryDx=0;entryDy=0;" edge="1" parent="1" source="NaAtIMm-xTfxLxhDLTir-90" target="NaAtIMm-xTfxLxhDLTir-51">
          <mxGeometry width="50" height="50" relative="1" as="geometry">
            <mxPoint x="100" y="537.5" as="sourcePoint" />
            <mxPoint x="150" y="487.5" as="targetPoint" />
            <Array as="points">
              <mxPoint x="-65" y="520.5" />
            </Array>
          </mxGeometry>
        </mxCell>
        <mxCell id="w1W0A1VWwd_R5ZJ30TFv-23" value="" style="endArrow=classic;html=1;rounded=0;entryX=0;entryY=0.5;entryDx=0;entryDy=0;exitX=1;exitY=0.5;exitDx=0;exitDy=0;" edge="1" parent="1" source="NaAtIMm-xTfxLxhDLTir-51" target="w1W0A1VWwd_R5ZJ30TFv-11">
          <mxGeometry width="50" height="50" relative="1" as="geometry">
            <mxPoint x="100" y="537.5" as="sourcePoint" />
            <mxPoint x="150" y="487.5" as="targetPoint" />
          </mxGeometry>
        </mxCell>
        <mxCell id="w1W0A1VWwd_R5ZJ30TFv-25" value="" style="endArrow=classic;html=1;rounded=0;entryX=0;entryY=0.5;entryDx=0;entryDy=0;exitX=0.5;exitY=1;exitDx=0;exitDy=0;" edge="1" parent="1" source="NaAtIMm-xTfxLxhDLTir-55" target="NaAtIMm-xTfxLxhDLTir-32">
          <mxGeometry width="50" height="50" relative="1" as="geometry">
            <mxPoint x="100" y="537.5" as="sourcePoint" />
            <mxPoint x="150" y="487.5" as="targetPoint" />
            <Array as="points">
              <mxPoint x="90" y="648.12" />
            </Array>
          </mxGeometry>
        </mxCell>
        <mxCell id="w1W0A1VWwd_R5ZJ30TFv-27" value="" style="endArrow=classic;html=1;rounded=0;exitX=1.009;exitY=0.601;exitDx=0;exitDy=0;entryX=0;entryY=0.5;entryDx=0;entryDy=0;exitPerimeter=0;" edge="1" parent="1" source="NaAtIMm-xTfxLxhDLTir-14" target="NaAtIMm-xTfxLxhDLTir-90">
          <mxGeometry width="50" height="50" relative="1" as="geometry">
            <mxPoint x="100" y="800" as="sourcePoint" />
            <mxPoint x="150" y="750" as="targetPoint" />
          </mxGeometry>
        </mxCell>
        <mxCell id="w1W0A1VWwd_R5ZJ30TFv-28" value="" style="endArrow=classic;html=1;rounded=0;entryX=0;entryY=0.5;entryDx=0;entryDy=0;" edge="1" parent="1">
          <mxGeometry width="50" height="50" relative="1" as="geometry">
            <mxPoint x="330" y="520.12" as="sourcePoint" />
            <mxPoint x="400" y="520.25" as="targetPoint" />
          </mxGeometry>
        </mxCell>
        <mxCell id="w1W0A1VWwd_R5ZJ30TFv-29" value="" style="endArrow=classic;html=1;rounded=0;entryX=0;entryY=0.5;entryDx=0;entryDy=0;exitX=0.996;exitY=0.977;exitDx=0;exitDy=0;exitPerimeter=0;" edge="1" parent="1" source="NaAtIMm-xTfxLxhDLTir-7" target="NaAtIMm-xTfxLxhDLTir-56">
          <mxGeometry width="50" height="50" relative="1" as="geometry">
            <mxPoint x="100" y="800" as="sourcePoint" />
            <mxPoint x="150" y="750" as="targetPoint" />
          </mxGeometry>
        </mxCell>
        <mxCell id="w1W0A1VWwd_R5ZJ30TFv-30" value="" style="endArrow=classic;html=1;rounded=0;entryX=0;entryY=0.5;entryDx=0;entryDy=0;exitX=1;exitY=0.5;exitDx=0;exitDy=0;" edge="1" parent="1" source="NaAtIMm-xTfxLxhDLTir-56" target="NaAtIMm-xTfxLxhDLTir-37">
          <mxGeometry width="50" height="50" relative="1" as="geometry">
            <mxPoint x="100" y="800" as="sourcePoint" />
            <mxPoint x="150" y="750" as="targetPoint" />
          </mxGeometry>
        </mxCell>
        <mxCell id="w1W0A1VWwd_R5ZJ30TFv-32" value="" style="endArrow=classic;startArrow=classic;html=1;rounded=0;entryX=0;entryY=0.5;entryDx=0;entryDy=0;exitX=1;exitY=0.5;exitDx=0;exitDy=0;" edge="1" parent="1" source="NaAtIMm-xTfxLxhDLTir-32" target="NaAtIMm-xTfxLxhDLTir-53">
          <mxGeometry width="50" height="50" relative="1" as="geometry">
            <mxPoint x="30" y="588.12" as="sourcePoint" />
            <mxPoint x="80" y="538.12" as="targetPoint" />
          </mxGeometry>
        </mxCell>
        <mxCell id="w1W0A1VWwd_R5ZJ30TFv-33" value="" style="points=[[0.35,0,0],[0.98,0.51,0],[1,0.71,0],[0.67,1,0],[0,0.795,0],[0,0.65,0]];verticalLabelPosition=bottom;sketch=0;html=1;verticalAlign=top;aspect=fixed;align=center;pointerEvents=1;shape=mxgraph.cisco19.user;fillColor=#005073;strokeColor=none;" vertex="1" parent="1">
          <mxGeometry x="-790" y="386.25" width="117.5" height="117.5" as="geometry" />
        </mxCell>
        <mxCell id="w1W0A1VWwd_R5ZJ30TFv-34" value="" style="endArrow=classic;startArrow=classic;html=1;rounded=0;" edge="1" parent="1">
          <mxGeometry width="50" height="50" relative="1" as="geometry">
            <mxPoint x="-660" y="440" as="sourcePoint" />
            <mxPoint x="-450" y="440" as="targetPoint" />
          </mxGeometry>
        </mxCell>
        <mxCell id="w1W0A1VWwd_R5ZJ30TFv-44" value="" style="shape=flexArrow;endArrow=classic;startArrow=classic;html=1;rounded=0;exitX=1;exitY=0.5;exitDx=0;exitDy=0;width=3;startSize=7.61;startWidth=7;endWidth=7;endSize=10.04;entryX=0.119;entryY=0.287;entryDx=0;entryDy=0;entryPerimeter=0;" edge="1" parent="1" source="NaAtIMm-xTfxLxhDLTir-30" target="NaAtIMm-xTfxLxhDLTir-39">
          <mxGeometry width="100" height="100" relative="1" as="geometry">
            <mxPoint x="710" y="468" as="sourcePoint" />
            <mxPoint x="1065.44" y="264.71000000000004" as="targetPoint" />
          </mxGeometry>
        </mxCell>
        <mxCell id="w1W0A1VWwd_R5ZJ30TFv-45" value="" style="shape=flexArrow;endArrow=classic;startArrow=classic;html=1;rounded=0;entryX=0.55;entryY=0.95;entryDx=0;entryDy=0;entryPerimeter=0;exitX=1;exitY=0.5;exitDx=0;exitDy=0;width=3;startSize=7.61;startWidth=7;endWidth=7;endSize=10.04;" edge="1" parent="1" source="NaAtIMm-xTfxLxhDLTir-37" target="NaAtIMm-xTfxLxhDLTir-39">
          <mxGeometry width="100" height="100" relative="1" as="geometry">
            <mxPoint x="194" y="905.75" as="sourcePoint" />
            <mxPoint x="1188" y="630" as="targetPoint" />
            <Array as="points">
              <mxPoint x="1186" y="950" />
            </Array>
          </mxGeometry>
        </mxCell>
        <mxCell id="w1W0A1VWwd_R5ZJ30TFv-47" value="" style="shape=flexArrow;endArrow=classic;startArrow=classic;html=1;rounded=0;entryX=0.07;entryY=0.4;entryDx=0;entryDy=0;entryPerimeter=0;exitX=1;exitY=0.5;exitDx=0;exitDy=0;width=3;startSize=7.61;startWidth=7;endWidth=7;endSize=10.04;" edge="1" parent="1" source="NaAtIMm-xTfxLxhDLTir-29" target="NaAtIMm-xTfxLxhDLTir-39">
          <mxGeometry width="100" height="100" relative="1" as="geometry">
            <mxPoint x="493.5" y="658.5" as="sourcePoint" />
            <mxPoint x="1174.1599999999999" y="613.74" as="targetPoint" />
            <Array as="points" />
          </mxGeometry>
        </mxCell>
        <mxCell id="Ip2MIkB-Gyl7ftnVB7W9-1" value="Asite Navisworks Plugin User" style="text;html=1;strokeColor=none;fillColor=none;align=center;verticalAlign=middle;whiteSpace=wrap;rounded=0;" vertex="1" parent="1">
          <mxGeometry x="-770" y="520" width="100" height="30" as="geometry" />
        </mxCell>
        <mxCell id="Ip2MIkB-Gyl7ftnVB7W9-2" value="Attach" style="html=1;dropTarget=0;whiteSpace=wrap;" vertex="1" parent="1">
          <mxGeometry x="-383.75" y="757.37" width="196.25" height="45" as="geometry" />
        </mxCell>
        <mxCell id="Ip2MIkB-Gyl7ftnVB7W9-3" value="" style="shape=module;jettyWidth=8;jettyHeight=4;" vertex="1" parent="Ip2MIkB-Gyl7ftnVB7W9-2">
          <mxGeometry x="1" width="20" height="20" relative="1" as="geometry">
            <mxPoint x="-27" y="7" as="offset" />
          </mxGeometry>
        </mxCell>
        <mxCell id="Ip2MIkB-Gyl7ftnVB7W9-4" value="Load NWF" style="html=1;dropTarget=0;whiteSpace=wrap;" vertex="1" parent="1">
          <mxGeometry x="-383.75" y="830" width="196.25" height="100" as="geometry" />
        </mxCell>
        <mxCell id="Ip2MIkB-Gyl7ftnVB7W9-5" value="" style="shape=module;jettyWidth=8;jettyHeight=4;" vertex="1" parent="Ip2MIkB-Gyl7ftnVB7W9-4">
          <mxGeometry x="1" width="20" height="20" relative="1" as="geometry">
            <mxPoint x="-27" y="7" as="offset" />
          </mxGeometry>
        </mxCell>
        <mxCell id="Ip2MIkB-Gyl7ftnVB7W9-6" value="Attach NWD" style="rounded=1;fillColor=#0057D8;align=center;strokeColor=none;html=1;whiteSpace=wrap;fontColor=#ffffff;fontSize=12;sketch=0;arcSize=50;" vertex="1" parent="1">
          <mxGeometry x="-77.5" y="741.62" width="110" height="26.5" as="geometry" />
        </mxCell>
        <mxCell id="Ip2MIkB-Gyl7ftnVB7W9-7" value="Attach NWF" style="rounded=1;fillColor=#0057D8;align=center;strokeColor=none;html=1;whiteSpace=wrap;fontColor=#ffffff;fontSize=12;sketch=0;arcSize=50;" vertex="1" parent="1">
          <mxGeometry x="-77.5" y="786.62" width="110" height="26.5" as="geometry" />
        </mxCell>
        <mxCell id="Ip2MIkB-Gyl7ftnVB7W9-15" value="" style="endArrow=classic;html=1;rounded=0;entryX=0.25;entryY=1;entryDx=0;entryDy=0;exitX=0.158;exitY=-0.039;exitDx=0;exitDy=0;exitPerimeter=0;" edge="1" parent="1" source="NaAtIMm-xTfxLxhDLTir-21" target="NaAtIMm-xTfxLxhDLTir-90">
          <mxGeometry width="50" height="50" relative="1" as="geometry">
            <mxPoint x="-260" y="780" as="sourcePoint" />
            <mxPoint x="-210" y="730" as="targetPoint" />
            <Array as="points">
              <mxPoint x="60" y="660" />
              <mxPoint x="-92" y="660" />
            </Array>
          </mxGeometry>
        </mxCell>
        <mxCell id="Ip2MIkB-Gyl7ftnVB7W9-16" value="" style="endArrow=none;html=1;rounded=0;" edge="1" parent="1">
          <mxGeometry width="50" height="50" relative="1" as="geometry">
            <mxPoint x="-180" y="780" as="sourcePoint" />
            <mxPoint x="-120" y="780" as="targetPoint" />
          </mxGeometry>
        </mxCell>
        <mxCell id="Ip2MIkB-Gyl7ftnVB7W9-17" value="" style="endArrow=none;html=1;rounded=0;" edge="1" parent="1">
          <mxGeometry width="50" height="50" relative="1" as="geometry">
            <mxPoint x="-120" y="800" as="sourcePoint" />
            <mxPoint x="-120" y="750" as="targetPoint" />
          </mxGeometry>
        </mxCell>
        <mxCell id="Ip2MIkB-Gyl7ftnVB7W9-19" value="" style="endArrow=classic;html=1;rounded=0;" edge="1" parent="1">
          <mxGeometry width="50" height="50" relative="1" as="geometry">
            <mxPoint x="-120" y="750" as="sourcePoint" />
            <mxPoint x="-80" y="750" as="targetPoint" />
          </mxGeometry>
        </mxCell>
        <mxCell id="Ip2MIkB-Gyl7ftnVB7W9-20" value="" style="endArrow=classic;html=1;rounded=0;" edge="1" parent="1">
          <mxGeometry width="50" height="50" relative="1" as="geometry">
            <mxPoint x="-120" y="798" as="sourcePoint" />
            <mxPoint x="-80" y="798" as="targetPoint" />
          </mxGeometry>
        </mxCell>
        <mxCell id="Ip2MIkB-Gyl7ftnVB7W9-22" value="AttachFileToModel()" style="rounded=0;whiteSpace=wrap;html=1;" vertex="1" parent="1">
          <mxGeometry x="160" y="764.87" width="140" height="30" as="geometry" />
        </mxCell>
        <mxCell id="Ip2MIkB-Gyl7ftnVB7W9-26" value="" style="endArrow=none;html=1;rounded=0;exitX=1;exitY=0.5;exitDx=0;exitDy=0;" edge="1" parent="1">
          <mxGeometry width="50" height="50" relative="1" as="geometry">
            <mxPoint x="32.5" y="752.8699999999999" as="sourcePoint" />
            <mxPoint x="80" y="753" as="targetPoint" />
          </mxGeometry>
        </mxCell>
        <mxCell id="Ip2MIkB-Gyl7ftnVB7W9-27" value="" style="endArrow=none;html=1;rounded=0;exitX=1;exitY=0.5;exitDx=0;exitDy=0;" edge="1" parent="1">
          <mxGeometry width="50" height="50" relative="1" as="geometry">
            <mxPoint x="32.5" y="799.3699999999999" as="sourcePoint" />
            <mxPoint x="80" y="799.5" as="targetPoint" />
          </mxGeometry>
        </mxCell>
        <mxCell id="Ip2MIkB-Gyl7ftnVB7W9-28" value="" style="endArrow=none;html=1;rounded=0;" edge="1" parent="1">
          <mxGeometry width="50" height="50" relative="1" as="geometry">
            <mxPoint x="80" y="800" as="sourcePoint" />
            <mxPoint x="80" y="750" as="targetPoint" />
          </mxGeometry>
        </mxCell>
        <mxCell id="Ip2MIkB-Gyl7ftnVB7W9-29" value="" style="endArrow=classic;html=1;rounded=0;entryX=0;entryY=0.5;entryDx=0;entryDy=0;" edge="1" parent="1" target="Ip2MIkB-Gyl7ftnVB7W9-22">
          <mxGeometry width="50" height="50" relative="1" as="geometry">
            <mxPoint x="80" y="780" as="sourcePoint" />
            <mxPoint x="-210" y="730" as="targetPoint" />
          </mxGeometry>
        </mxCell>
        <mxCell id="Ip2MIkB-Gyl7ftnVB7W9-30" value="" style="shape=flexArrow;endArrow=classic;html=1;rounded=0;exitX=1;exitY=0.5;exitDx=0;exitDy=0;width=5;endSize=21.98;endWidth=7;entryX=0.158;entryY=0.819;entryDx=0;entryDy=0;entryPerimeter=0;" edge="1" parent="1" source="Ip2MIkB-Gyl7ftnVB7W9-22" target="NaAtIMm-xTfxLxhDLTir-39">
          <mxGeometry width="50" height="50" relative="1" as="geometry">
            <mxPoint x="200" y="770" as="sourcePoint" />
            <mxPoint x="1160" y="590" as="targetPoint" />
            <Array as="points">
              <mxPoint x="910" y="780" />
            </Array>
          </mxGeometry>
        </mxCell>
        <mxCell id="Ip2MIkB-Gyl7ftnVB7W9-31" value="Attach NWF file list" style="swimlane;fontStyle=0;childLayout=stackLayout;horizontal=1;startSize=23;horizontalStack=0;resizeParent=1;resizeParentMax=0;resizeLast=0;collapsible=1;marginBottom=0;whiteSpace=wrap;html=1;" vertex="1" parent="1">
          <mxGeometry x="80" y="834" width="140" height="83" as="geometry" />
        </mxCell>
        <mxCell id="Ip2MIkB-Gyl7ftnVB7W9-32" value="File 1" style="text;strokeColor=none;fillColor=none;align=left;verticalAlign=middle;spacingLeft=4;spacingRight=4;overflow=hidden;points=[[0,0.5],[1,0.5]];portConstraint=eastwest;rotatable=0;whiteSpace=wrap;html=1;" vertex="1" parent="Ip2MIkB-Gyl7ftnVB7W9-31">
          <mxGeometry y="23" width="140" height="20" as="geometry" />
        </mxCell>
        <mxCell id="Ip2MIkB-Gyl7ftnVB7W9-33" value="File 2" style="text;strokeColor=none;fillColor=none;align=left;verticalAlign=middle;spacingLeft=4;spacingRight=4;overflow=hidden;points=[[0,0.5],[1,0.5]];portConstraint=eastwest;rotatable=0;whiteSpace=wrap;html=1;" vertex="1" parent="Ip2MIkB-Gyl7ftnVB7W9-31">
          <mxGeometry y="43" width="140" height="20" as="geometry" />
        </mxCell>
        <mxCell id="Ip2MIkB-Gyl7ftnVB7W9-34" value="File 3" style="text;strokeColor=none;fillColor=none;align=left;verticalAlign=middle;spacingLeft=4;spacingRight=4;overflow=hidden;points=[[0,0.5],[1,0.5]];portConstraint=eastwest;rotatable=0;whiteSpace=wrap;html=1;" vertex="1" parent="Ip2MIkB-Gyl7ftnVB7W9-31">
          <mxGeometry y="63" width="140" height="20" as="geometry" />
        </mxCell>
        <mxCell id="Ip2MIkB-Gyl7ftnVB7W9-35" value="LoadNWFFIle()" style="rounded=0;whiteSpace=wrap;html=1;" vertex="1" parent="1">
          <mxGeometry x="-127.5" y="865" width="140" height="30" as="geometry" />
        </mxCell>
        <mxCell id="Ip2MIkB-Gyl7ftnVB7W9-37" value="" style="endArrow=classic;html=1;rounded=0;entryX=0;entryY=0.5;entryDx=0;entryDy=0;" edge="1" parent="1" target="Ip2MIkB-Gyl7ftnVB7W9-35">
          <mxGeometry width="50" height="50" relative="1" as="geometry">
            <mxPoint x="-187.5" y="880" as="sourcePoint" />
            <mxPoint x="-137.5" y="830" as="targetPoint" />
          </mxGeometry>
        </mxCell>
        <mxCell id="Ip2MIkB-Gyl7ftnVB7W9-38" value="" style="endArrow=classic;html=1;rounded=0;entryX=-0.021;entryY=0.073;entryDx=0;entryDy=0;entryPerimeter=0;exitX=1;exitY=0.5;exitDx=0;exitDy=0;" edge="1" parent="1" source="Ip2MIkB-Gyl7ftnVB7W9-35" target="Ip2MIkB-Gyl7ftnVB7W9-33">
          <mxGeometry width="50" height="50" relative="1" as="geometry">
            <mxPoint x="40" y="770" as="sourcePoint" />
            <mxPoint x="90" y="720" as="targetPoint" />
          </mxGeometry>
        </mxCell>
        <mxCell id="Ip2MIkB-Gyl7ftnVB7W9-40" value="" style="shape=flexArrow;endArrow=classic;startArrow=classic;html=1;rounded=0;endWidth=4;endSize=13.62;width=3;startWidth=4;startSize=13.62;exitX=1.009;exitY=0.167;exitDx=0;exitDy=0;exitPerimeter=0;entryX=0.403;entryY=0.9;entryDx=0;entryDy=0;entryPerimeter=0;" edge="1" parent="1" source="Ip2MIkB-Gyl7ftnVB7W9-33" target="NaAtIMm-xTfxLxhDLTir-39">
          <mxGeometry width="100" height="100" relative="1" as="geometry">
            <mxPoint x="390" y="886.62" as="sourcePoint" />
            <mxPoint x="610" y="890" as="targetPoint" />
            <Array as="points">
              <mxPoint x="1080" y="882" />
            </Array>
          </mxGeometry>
        </mxCell>
        <mxCell id="Ip2MIkB-Gyl7ftnVB7W9-41" value="&lt;span style=&quot;font-size: 23px;&quot;&gt;&lt;b&gt;Backend(Native Code)&lt;/b&gt;&lt;/span&gt;" style="text;html=1;strokeColor=none;fillColor=none;align=center;verticalAlign=middle;whiteSpace=wrap;rounded=0;" vertex="1" parent="1">
          <mxGeometry x="240" y="14" width="250" height="30" as="geometry" />
        </mxCell>
        <mxCell id="Ip2MIkB-Gyl7ftnVB7W9-42" value="&lt;b&gt;&lt;font style=&quot;font-size: 23px;&quot;&gt;User Interface&lt;/font&gt;&lt;/b&gt;" style="text;html=1;strokeColor=none;fillColor=none;align=center;verticalAlign=middle;whiteSpace=wrap;rounded=0;" vertex="1" parent="1">
          <mxGeometry x="-370" y="4" width="180" height="30" as="geometry" />
        </mxCell>
        <mxCell id="lrebHCyf92QXDwHgs-Xv-1" value="" style="shape=flexArrow;endArrow=classic;html=1;rounded=0;endWidth=7;endSize=14.78;width=4;entryX=1;entryY=0.5;entryDx=0;entryDy=0;exitX=0.543;exitY=0.13;exitDx=0;exitDy=0;exitPerimeter=0;" edge="1" parent="1" target="NaAtIMm-xTfxLxhDLTir-17">
          <mxGeometry width="50" height="50" relative="1" as="geometry">
            <mxPoint x="1182" y="354" as="sourcePoint" />
            <mxPoint x="1030" y="235" as="targetPoint" />
            <Array as="points">
              <mxPoint x="1182" y="245" />
            </Array>
          </mxGeometry>
        </mxCell>
        <mxCell id="lrebHCyf92QXDwHgs-Xv-2" value="" style="endArrow=classic;html=1;rounded=0;entryX=0.749;entryY=0.177;entryDx=0;entryDy=0;entryPerimeter=0;exitX=1;exitY=0.5;exitDx=0;exitDy=0;" edge="1" parent="1" source="NaAtIMm-xTfxLxhDLTir-16" target="NaAtIMm-xTfxLxhDLTir-39">
          <mxGeometry width="50" height="50" relative="1" as="geometry">
            <mxPoint x="270" y="160" as="sourcePoint" />
            <mxPoint x="1235" y="365" as="targetPoint" />
            <Array as="points">
              <mxPoint x="1232" y="170" />
            </Array>
          </mxGeometry>
        </mxCell>
        <mxCell id="lrebHCyf92QXDwHgs-Xv-3" value="Download" style="html=1;dropTarget=0;whiteSpace=wrap;" vertex="1" parent="1">
          <mxGeometry x="-388.12" y="260" width="196.25" height="183" as="geometry" />
        </mxCell>
        <mxCell id="lrebHCyf92QXDwHgs-Xv-4" value="" style="shape=module;jettyWidth=8;jettyHeight=4;" vertex="1" parent="lrebHCyf92QXDwHgs-Xv-3">
          <mxGeometry x="1" width="20" height="20" relative="1" as="geometry">
            <mxPoint x="-27" y="7" as="offset" />
          </mxGeometry>
        </mxCell>
        <mxCell id="lrebHCyf92QXDwHgs-Xv-5" value="Clashes to Issues" style="html=1;dropTarget=0;whiteSpace=wrap;" vertex="1" parent="1">
          <mxGeometry x="-383.75" y="685.37" width="196.25" height="45" as="geometry" />
        </mxCell>
        <mxCell id="lrebHCyf92QXDwHgs-Xv-6" value="" style="shape=module;jettyWidth=8;jettyHeight=4;" vertex="1" parent="lrebHCyf92QXDwHgs-Xv-5">
          <mxGeometry x="1" width="20" height="20" relative="1" as="geometry">
            <mxPoint x="-27" y="7" as="offset" />
          </mxGeometry>
        </mxCell>
        <mxCell id="lrebHCyf92QXDwHgs-Xv-7" value="" style="endArrow=classic;html=1;rounded=0;exitX=0;exitY=0.5;exitDx=0;exitDy=0;entryX=1.003;entryY=0.036;entryDx=0;entryDy=0;entryPerimeter=0;" edge="1" parent="1" source="NaAtIMm-xTfxLxhDLTir-17" target="NaAtIMm-xTfxLxhDLTir-12">
          <mxGeometry width="50" height="50" relative="1" as="geometry">
            <mxPoint x="-90" y="320" as="sourcePoint" />
            <mxPoint x="-40" y="270" as="targetPoint" />
          </mxGeometry>
        </mxCell>
      </root>
    </mxGraphModel>
  </diagram>
</mxfile>
